<?xml version="1.0" encoding="UTF-8" standalone="no"?>
<svg
    height="283.465pt"
    width="283.465pt"
    version="1.1"
    viewBox="0 0 283.465 283.465"
    id="svg7"
    xmlns="http://www.w3.org/2000/svg"
>
  <defs
     id="defs1" />
  <g
     id="New Layer 2">
    <path
       transform="translate(-8.50394,-7.63636)"
       d="M 0,0 H 300.472 V 301.091 H 0 Z"
       style="fill:#007cbc;fill-rule:evenodd;stroke:none"
       id="path3" />
  </g>
  <g
     id="New Layer 1">
    <path
       transform="translate(54.3945,26.7323)"
       d="m 0.0166238,225.717 0.4337242,0.313 0.523964,0.326 0.615708,0.337 0.70897,0.34 0.80373,0.342 0.9,0.339 0.99778,0.33 1.09707,0.319 1.19787,0.301 1.30016,0.282 1.40399,0.258 1.50931,0.229 1.6161,0.196 1.7244,0.159 1.8344,0.117 1.9457,0.073 2.0585,0.022 2.1729,-0.032 0.2013,-0.009 0.2003,0.009 2.1729,0.032 2.0585,-0.022 1.9457,-0.072 1.8343,-0.118 1.7245,-0.158 1.6161,-0.196 1.5093,-0.229 1.404,-0.258 1.3001,-0.282 1.1979,-0.303 1.0971,-0.318 0.9978,-0.331 0.9,-0.338 0.8037,-0.342 0.709,-0.34 0.6157,-0.336 0.5239,-0.327 0.4338,-0.313 0.0118,-0.233 0.0048,-0.513 -0.0022,-0.785 -0.0088,-1.046 -0.0153,-1.3 -0.0215,-1.543 -0.0275,-1.777 -0.0332,-2.003 -0.0388,-2.218 -0.0442,-2.425 -0.0492,-2.623 -0.0541,-2.81 -0.0588,-2.99 -0.0631,-3.159 -0.0674,-3.319 -0.0713,-3.471 -0.0751,-3.613 -0.0786,-3.745 -0.0818,-3.868 -0.085,-3.983 -0.0878,-4.088 -0.0903,-4.183 -0.0928,-4.27 -0.095,-4.347 -0.0969,-4.415 -0.0986,-4.474 -0.1,-4.523 -0.1014,-4.563 -0.1024,-4.594 -0.1032,-4.616 -0.1037,-4.628 -0.1042,-4.632 -0.1042,-4.625 -0.1042,-4.611 -0.1039,-4.585 -0.1033,-4.552 -0.1025,-4.509 -0.1016,-4.4566 -0.1003,-4.3951 -0.0989,-4.3244 -0.0972,-4.2443 -0.0954,-4.1551 -0.0932,-4.0565 -0.0908,-3.9489 -0.0883,-3.8318 -0.0855,-3.7056 -0.0824,-3.5701 -0.0792,-3.4254 -0.0757,-3.2713 -0.0721,-3.1082 -0.0681,-2.9357 -0.0639,-2.754 -0.0596,-2.563 -0.055,-2.3627 -0.0501,-2.1534 -0.0451,-1.9346 -0.0398,-1.7067 -0.0343,-1.4695 -0.0286,-1.223 -0.0226,-0.9673 -0.0164,-0.7025 -0.01,-0.4282 -0.0034,-0.1448 1.3426,-1.3199 1.3548,-0.7144 0.2471,-0.7104 0.1391,-1.3986 0.0421,-1.8179 -0.0443,-1.9685 -0.1199,-1.8504 -0.1846,-1.4636 -0.2387,-0.8078 -1.1267,-0.8272 -1.6844,-0.365 -0.1581,-0.3081 -0.125,-0.6267 L 41.2117,15.1622 41.0445,14.0384 40.8019,12.7362 40.4477,11.3021 39.9457,9.78304 39.2596,8.22556 38.3533,6.67641 37.1905,5.1823 35.7351,3.78991 33.9508,2.54596 31.8014,1.49715 29.2508,0.690174 26.2628,0.171742 23.106,0.00469262 V 0 L 23.0617,0.00234635 23.0173,0 V 0.00469277 L 19.8607,0.171741 16.8725,0.690174 14.322,1.49715 12.1727,2.54596 10.3883,3.78992 8.93289,5.18229 7.77012,6.67641 6.8638,8.22556 6.17772,9.78304 5.67566,11.3021 l -0.35421,1.434 -0.24259,1.3023 -0.16717,1.1238 -0.12795,0.8986 -0.12495,0.6267 -0.15813,0.308 -1.68439,0.3651 -1.12671,0.8272 -0.23866,0.8078 -0.18464,1.4635 -0.11986,1.8504 -0.0443,1.9686 0.04204,1.8178 0.13915,1.3987 0.24706,0.7104 1.35479,0.7145 1.34267,1.3199 -0.00339,0.1447 -0.01002,0.4283 -0.01644,0.7023 -0.02261,0.9674 -0.02857,1.223 -0.0343,1.4695 -0.03981,1.7067 -0.04509,1.9346 -0.05014,2.1533 -0.05496,2.3629 -0.05958,2.5629 -0.06395,2.754 -0.0681,2.9357 -0.07203,3.1081 -0.07573,3.2714 -0.0792,3.4254 -0.08245,3.5701 -0.08548,3.7056 -0.08828,3.8318 -0.09085,3.9488 -0.0932,4.0566 -0.09532,4.1552 -0.09721,4.2442 -0.09889,4.3244 -0.10033,4.3951 -0.10156,4.4566 -0.10255,4.509 -0.10331,4.552 -0.10386,4.585 -0.10418,4.611 -0.10427,4.625 -0.10413,4.632 -0.10378,4.628 -0.10319,4.616 -0.10237,4.594 -0.10135,4.564 -0.10009,4.523 -0.0986,4.473 -0.09688,4.415 -0.09495,4.347 -0.09279,4.27 -0.09039,4.183 -0.087782,4.087 -0.08494,3.983 -0.081875,3.869 -0.078585,3.745 -0.075067,3.613 -0.071325,3.471 -0.067358,3.319 -0.063163,3.16 -0.058745,2.988 -0.0541,2.811 -0.049232,2.623 -0.044135,2.425 -0.038813,2.218 -0.0332677,2.003 -0.027495,1.777 -0.0214974,1.544 -0.015274,1.299 -0.00882513,1.046 L 0,224.971 l 0.00474918,0.513 z"
       style="fill:#ffffff;fill-rule:evenodd;stroke:none"
       id="path4" />
    <path
       transform="rotate(-44.988,125.93755,-21.287942)"
       d="m 12.767,0 h 10.5703 l 0.0054,12.7724 h 12.7725 l 0.0045,10.5703 H 23.3472 l 0.0055,12.7725 H 12.7824 L 12.777,23.3427 H 0.00451373 L 0,12.7724 h 12.7724 z"
       style="fill:#ff0000;fill-rule:evenodd;stroke:none"
       id="path5" />
    <path
       transform="rotate(-44.988,173.45767,-1.6102919)"
       d="m 12.767,0 h 10.5702 l 0.0055,12.7725 h 12.7725 l 0.0045,10.5702 H 23.3472 l 0.0055,12.7725 H 12.7825 L 12.777,23.3427 H 0.00451369 L 0,12.7725 h 12.7725 z"
       style="fill:#ff0000;fill-rule:evenodd;stroke:none"
       id="path6" />
    <path
       transform="rotate(-44.988,220.97743,18.067208)"
       d="m 12.767,0 h 10.5702 l 0.0055,12.7725 h 12.7725 l 0.0045,10.5702 H 23.3472 l 0.0055,12.7725 H 12.7825 L 12.777,23.3427 H 0.00451369 L 0,12.7725 h 12.7725 z"
       style="fill:#ff0000;fill-rule:evenodd;stroke:none"
       id="path7" />
    <path
       transform="translate(121.592,26.904)"
       d="m 0,0 h 8.70524 l 1.49746,0.00109694 1.4786,0.00329082 1.46,0.00548469 1.4412,0.00767855 1.4225,0.0098725 1.4037,0.0120663 1.385,0.0142602 1.3662,0.0164541 1.3476,0.0186479 1.3287,0.020842 1.3101,0.023036 1.2913,0.025229 1.2726,0.027424 1.2538,0.029617 1.2351,0.031811 1.2163,0.034005 1.1977,0.036199 1.1789,0.038393 1.1601,0.040587 1.1414,0.042781 1.1227,0.044974 1.1039,0.047168 1.0852,0.049363 1.0665,0.051556 1.0477,0.05375 1.029,0.055944 1.0102,0.058137 0.9915,0.060332 0.9728,0.062526 0.9541,0.064719 0.9353,0.066915 0.9165,0.06911 0.8978,0.0713 0.8791,0.07349 0.8604,0.07569 0.8416,0.07788 0.8229,0.08008 0.8041,0.08227 0.7854,0.08446 0.7667,0.08666 0.7479,0.08885 0.7292,0.09105 0.7104,0.09324 0.6918,0.09543 0.6729,0.09763 0.6543,0.09982 0.6355,0.10202 0.6167,0.10421 0.5981,0.1064 0.5793,0.1086 0.5605,0.11079 0.5418,0.11298 0.5231,0.11518 0.5044,0.11737 0.4856,0.11957 0.4668,0.12176 1.1875,0.32354 1.1757,0.34579 1.1639,0.36803 1.1521,0.39026 1.1404,0.41251 1.1285,0.43475 1.1169,0.45698 1.105,0.47923 1.0933,0.50147 1.0815,0.52371 1.0697,0.54595 1.0579,0.56819 1.0462,0.59043 1.0344,0.61268 1.0227,0.63488 1.0108,0.6572 0.9991,0.6794 0.9873,0.7016 0.9756,0.7239 0.9638,0.7461 0.952,0.7684 0.9402,0.7906 0.9284,0.8128 0.9167,0.8351 0.9049,0.8573 0.8932,0.8795 0.8813,0.9018 0.8696,0.9241 0.8579,0.9463 0.846,0.9685 0.8343,0.9908 0.8225,1.013 0.8107,1.0352 0.5837,0.7723 0.5706,0.7823 0.5574,0.7922 0.5443,0.8022 0.5312,0.8121 0.5181,0.8221 0.5045,0.832 0.492,0.842 0.479,0.852 0.466,0.8619 0.452,0.8719 0.44,0.8818 0.426,0.8918 0.413,0.9017 0.4,0.9117 0.387,0.9216 0.374,0.9316 0.36,0.9416 0.348,0.9515 0.334,0.9615 0.322,0.9714 0.308,0.9814 0.295,0.9913 0.282,1.0013 0.269,1.0112 0.256,1.0212 0.242,1.0312 0.23,1.0411 0.216,1.0511 0.204,1.061 0.19,1.071 0.177,1.0809 0.164,1.0909 0.151,1.1008 0.137,1.1108 0.125,1.1208 0.112,1.1307 0.098,1.1407 0.085,1.1506 0.072,1.1606 0.059,1.1705 0.046,1.1805 0.033,1.1904 0.02,1.2004 0.006,1.2104 -0.006,1.1668 -0.017,1.1563 -0.03,1.1461 -0.041,1.1356 -0.053,1.1253 -0.065,1.1149 -0.077,1.1045 -0.089,1.0942 -0.1,1.0838 -0.112,1.0734 -0.124,1.0631 -0.136,1.0527 -0.148,1.0423 -0.159,1.0319 -0.172,1.0216 -0.183,1.0112 -0.195,1.0008 -0.207,0.9905 -0.218,0.9801 -0.23,0.9697 -0.243,0.9594 -0.254,0.9489 -0.265,0.9387 -0.278,0.9282 -0.289,0.9179 -0.302,0.9075 -0.313,0.8971 -0.325,0.8868 -0.336,0.8767 -0.349,0.866 -0.36,0.855 -0.372,0.846 -0.384,0.835 -0.396,0.824 -0.407,0.814 -0.42,0.804 -0.704,1.294 -0.722,1.269 -0.739,1.243 -0.7554,1.217 -0.773,1.192 -0.7901,1.167 -0.8073,1.141 -0.8243,1.116 -0.8415,1.09 -0.8587,1.064 -0.8757,1.04 -0.8929,1.013 -0.91,0.988 -0.9271,0.963 -0.9443,0.937 -0.9614,0.912 -0.9785,0.886 -0.9957,0.86 -1.0128,0.836 -1.0299,0.809 -1.047,0.784 -1.0642,0.759 -0.9836,0.674 -0.9849,0.654 -0.9864,0.635 -0.9877,0.616 -0.9891,0.597 -0.9904,0.577 -0.9919,0.559 -0.9932,0.539 -0.9946,0.519 -0.9959,0.501 -0.9973,0.481 -0.9987,0.462 -1.0001,0.442 -1.0014,0.424 -1.0028,0.404 -1.0042,0.385 -1.0055,0.366 -1.0069,0.346 -1.0083,0.327 -1.0097,0.308 -1.011,0.289 -1.0124,0.269 -1.0138,0.25 -1.0152,0.231 -0.6821,0.133 -0.6944,0.13 -0.7069,0.127 -0.7192,0.124 -0.7315,0.122 -0.744,0.119 -0.7562,0.117 -0.7687,0.113 -0.781,0.111 -0.7934,0.108 -0.8058,0.105 -0.8181,0.103 -0.8305,0.1 -0.8429,0.097 -0.8552,0.094 -0.8676,0.092 -0.8799,0.089 -0.8923,0.086 -0.9047,0.084 -0.9171,0.08 -0.9294,0.078 -0.9418,0.076 -0.9541,0.072 -0.9665,0.07 -0.9789,0.067 -0.9912,0.064 -1.0036,0.062 -1.016,0.059 -1.0284,0.056 -1.0407,0.053 -1.053,0.051 -1.0655,0.048 -1.0778,0.045 -1.0901,0.042 -1.1026,0.04 -1.1149,0.037 -1.1272,0.034 -1.1397,0.031 -1.152,0.029 -1.1643,0.026 -1.1768,0.023 -1.1891,0.021 -1.2014,0.018 -1.2138,0.015 -1.2262,0.012 -1.2386,0.01 -1.2509,0.007 -1.2633,0.004 -1.2757,0.001 H 0 v -38.91 h 6.05024 l 1.46487,-0.003 1.43837,-0.007 1.41192,-0.014 1.3854,-0.018 1.3589,-0.024 1.3324,-0.028 1.306,-0.034 1.2794,-0.04 1.253,-0.044 1.2265,-0.05 1.2,-0.055 1.1735,-0.061 1.147,-0.065 1.1206,-0.071 1.094,-0.076 1.0676,-0.081 1.0411,-0.087 1.0146,-0.092 0.9881,-0.097 0.9616,-0.102 0.9351,-0.107 0.9087,-0.113 0.8822,-0.118 0.8556,-0.123 0.8292,-0.129 0.8027,-0.134 0.7762,-0.139 0.7498,-0.144 0.7232,-0.149 0.6968,-0.155 0.6702,-0.16 0.6438,-0.165 0.6173,-0.171 0.5908,-0.175 0.5644,-0.181 0.5378,-0.187 0.5113,-0.191 1.2969,-0.5343 1.2561,-0.5757 1.2155,-0.6171 1.1748,-0.6586 1.1342,-0.7 1.0935,-0.7414 1.0528,-0.7829 1.0122,-0.8243 0.9715,-0.8657 0.9308,-0.9071 0.8902,-0.9486 0.8495,-0.99 0.8089,-1.0314 0.7681,-1.0729 0.5978,-0.9098 0.5615,-0.9271 0.5254,-0.9443 0.489,-0.9616 0.4529,-0.9789 0.4166,-0.9962 0.3804,-1.0134 0.3442,-1.0306 0.3079,-1.048 0.2717,-1.0652 0.2355,-1.0825 0.1993,-1.0997 0.163,-1.117 0.1268,-1.1343 0.0906,-1.1515 0.0543,-1.1688 L 62.3002,71.095 62.2819,69.8559 62.2268,68.6388 62.135,67.4434 62.0064,66.27 61.8412,65.1184 61.6392,63.9888 61.4005,62.8809 61.125,61.795 60.8129,60.7309 60.464,59.6888 60.0784,58.6684 59.656,57.67 59.197,56.6934 58.7012,55.7388 58.1687,54.8059 57.5994,53.895 56.9935,53.0059 56.3508,52.1388 55.6714,51.2934 54.9552,50.47 54.1271,49.586 53.2748,48.7397 52.3984,47.931 51.498,47.1599 50.5734,46.4264 49.6247,45.7306 48.6519,45.0723 47.655,44.4517 46.634,43.8687 45.5889,43.3234 44.5197,42.8157 43.4264,42.3456 42.3089,41.9131 41.1674,41.5182 40.0018,41.161 38.812,40.8414 l -1.2138,-0.282 -1.238,-0.2444 -0.5171,-0.0934 -0.5479,-0.0905 -0.5786,-0.0877 -0.6093,-0.0848 -0.64,-0.0819 -0.6707,-0.0791 -0.7014,-0.0761 -0.7321,-0.0733 -0.7629,-0.0704 -0.7935,-0.0676 -0.8242,-0.0646 -0.855,-0.0618 -0.8856,-0.059 -0.9164,-0.056 -0.9471,-0.0532 -0.9778,-0.0503 -1.0084,-0.0474 -1.0392,-0.0446 -1.0699,-0.0416 -1.1006,-0.0388 -1.1314,-0.036 -1.162,-0.033 L 16.6964,38.8937 15.473,38.8664 14.2188,38.842 12.934,38.8204 11.6184,38.8017 10.2722,38.7859 8.89519,38.773 7.48751,38.7629 6.04913,38.7557 4.58004,38.7514 3.08024,38.75 H 0 Z"
       style="fill:#ffffff;fill-rule:evenodd;stroke:none"
       id="Text12+U0" />
  </g>
</svg>
